<svg id="svg5" xmlns="http://www.w3.org/2000/svg" viewBox="0 0 469.51 193.29"><g id="g4828"><g id="g8810"><path id="path302" d="M327.68,259c-34.65-1.62-58.53-4.7-57.59-7.44.36-1.05,2.4-6.48,4.53-12.05,14.25-37.23.7-72.49-27.84-72.49-24.65,0-33.24,26.86-19.94,62.35,6.54,17.47,10.33,16.55-30.31,7.35-19-4.3-47.92-10.8-64.24-14.44s-30.61-6.88-31.76-7.2c-1.82-.5-2.2-3.63-2.77-22.83-1-34.41-7.31-44.16-20.89-32.39-4.2,3.63-4.48,3-2.48-5,7.25-29.34,13.09-35.19,40.23-40.31,11.16-2.11,12.73-2.78,22.57-9.68,71.39-50.08,168.42-51.4,210.13-2.87,4.09,4.76,4.09,4.76-1.9.55C289.94,63.5,196.73,69.14,139,115c-7,5.56-8.38,6.14-19.87,8.25-17,3.13-24.81,7.25-29.46,15.46-2.58,4.55-2.28,5.7,1.46,5.7,9.2,0,14.34,13.34,16.48,42.74,1.52,20.75,1.52,20.75,45.37,30.65,72.34,16.32,64.58,15.84,61.15,3.85-10.38-36.31,3.48-63.42,32.38-63.34,35.45.09,53,38,38.24,82.58-2.27,6.84-5,6.27,38.72,8.23,69.88,3.14,146.43-4.43,201.52-19.94,4.21-1.18-3.42,3.52-12.84,7.91-34.68,16.18-111.47,25.3-184.42,21.89Zm206.76-49.27c-.93-31.14-18-51.25-34-62.29-20.58-14-98.82-31.51-215.95-20.17-68,6.59-115,9-132.19,6.69-8.38-1.11-8.38-1.11-.64-1.27,10.51-.22,35.85-2.9,73.93-7.81,17.5-2.25,40.53-5.17,51.17-6.49,143.45-17.7,226.33-2,255,48.21,11,19.16,13.29,44.57,5,54C534.45,223.27,534.4,223.08,534.44,209.73Z" transform="translate(-72.25 -66.42)" style="fill:#1a4a24"/><path id="path827" d="M369.79,185.87c-29.65-1.48-42.44-5.25-57.16-16.87-2.45-1.93,7-6,15.68-6.77,22.74-2,48.45,4.25,87.49,21.14,11.42,4.94,7.33,5.17-46,2.5Z" transform="translate(-72.25 -66.42)" style="fill:#2b984e"/><path id="path302-1" d="M506.75,152.26c4.15,6.92-13,27.38-12.67,31s26.21-3.44,32.68-5.53c-4.28-10.06-13.74-20.92-20-25.43Z" transform="translate(-72.25 -66.42)" style="fill:green"/><ellipse id="path436" cx="249.25" cy="205.71" rx="21.22" ry="31.17" transform="translate(-100.39 -26.53) rotate(-8.66)" style="fill:#c81d2a"/><ellipse id="path436-1" cx="82.88" cy="183.88" rx="10.53" ry="21.87" transform="translate(-85.6 -59.8) rotate(-4.23)" style="fill:#c81d2a"/></g></g></svg>